<?xml version="1.0" encoding="UTF-8" standalone="no"?>
<svg
   xmlns:dc="http://purl.org/dc/elements/1.1/"
   xmlns:cc="http://creativecommons.org/ns#"
   xmlns:rdf="http://www.w3.org/1999/02/22-rdf-syntax-ns#"
   xmlns:svg="http://www.w3.org/2000/svg"
   xmlns="http://www.w3.org/2000/svg"
   xmlns:sodipodi="http://sodipodi.sourceforge.net/DTD/sodipodi-0.dtd"
   xmlns:inkscape="http://www.inkscape.org/namespaces/inkscape"
   version="1.1"
   id="logo"
   class="clappr-ws__after-logo-svg"
   x="0"
   y="0"
   width="632.297"
   height="243.642"
   viewBox="0 0 632.297 243.64199"
   xml:space="preserve"
   sodipodi:docname="logo.svg"
   inkscape:version="1.0.2-2 (e86c870879, 2021-01-15)"><metadata
     id="metadata17"><rdf:RDF><cc:Work
         rdf:about=""><dc:format>image/svg+xml</dc:format><dc:type
           rdf:resource="http://purl.org/dc/dcmitype/StillImage" /><dc:title></dc:title></cc:Work></rdf:RDF></metadata><defs
     id="defs15" /><sodipodi:namedview
     pagecolor="#ffffff"
     bordercolor="#666666"
     borderopacity="1"
     objecttolerance="10"
     gridtolerance="10"
     guidetolerance="10"
     inkscape:pageopacity="0"
     inkscape:pageshadow="2"
     inkscape:window-width="1366"
     inkscape:window-height="705"
     id="namedview13"
     showgrid="false"
     inkscape:zoom="0.81219844"
     inkscape:cx="249.01797"
     inkscape:cy="120.35952"
     inkscape:window-x="-8"
     inkscape:window-y="-8"
     inkscape:window-maximized="1"
     inkscape:current-layer="logo" /><g
     transform="matrix(1.3197573,0,0,-1.3197566,-75.53103,310.156)"
     id="g870"><g
       transform="translate(178.06,235.01)"
       id="g864"><path
         d="M 0,0 -22.669,-39.264 -45.338,0 h -75.491 L -22.669,-170.02 75.491,0 Z"
         fill="#41b883"
         id="path862" /></g><g
       transform="translate(178.06,235.01)"
       id="g868"><path
         d="M 0,0 -22.669,-39.264 -45.338,0 H -81.565 L -22.669,-102.01 36.227,0 Z"
         fill="#34495e"
         id="path866" /></g></g><g
     fill-rule="evenodd"
     clip-rule="evenodd"
     fill="none"
     stroke="#ffffff"
     stroke-width="5"
     stroke-linecap="round"
     stroke-linejoin="round"
     stroke-miterlimit="10"
     id="g10"
     style="stroke-width:8;stroke-linecap:round;stroke-miterlimit:10;stroke-dasharray:none"
     transform="translate(124.50538,40.471116)"><path
       d="M 125.171,19.253 H 64.693 m 439.099,0 H 145.433 m 161.708,164.661 h 136.85 m -228.506,0 h 71.396 m -281.839,0 H 195.18 M 155.953,29.384 c -2.258,6.186 -5.383,14.769 -8.488,23.362 -3.107,8.6 -6.996,16.074 -17.917,26.996 -6.542,6.541 -14.15,14.15 -21.757,21.757 -20.322,20.322 -40.625,40.627 -40.625,40.627 -4.488,4.486 -9.055,8.125 -13.543,8.125 H 33.3 c -8.975,0 -13.602,-7.275 -10.336,-16.252 L 46.623,68.998 C 49.89,60.021 57.104,52.746 66.08,52.746 h 22.438 m 67.139,45.578 c -1.058,1.057 -2.117,2.115 -3.177,3.176 -20.323,20.322 -40.627,40.627 -40.627,40.627 -4.486,4.486 -9.054,8.125 -13.541,8.125 H 95.66 c -4.487,0 -6.801,-3.639 -5.168,-8.125 0,0 7.39,-20.305 14.787,-40.627 7.39,-20.304 32.53,-89.379 32.53,-89.379 1.634,-4.487 3.887,-8.125 8.374,-8.125 h 5.482 c 4.672,0 7.432,1.971 8.543,5.127"
       id="path2"
       style="stroke-width:8;stroke-linecap:round;stroke-miterlimit:10;stroke-dasharray:none" /><path
       d="M 291.723,198.994 344.588,53.765 c 0,0 0.291,-1.023 -0.434,-1.023 -0.834,0 -1.463,0.834 -1.463,0.834 0,0 -40.668,40.668 -47.916,47.917 l -32.5,32.5 c -8.975,8.975 -6.268,16.252 2.707,16.252 h 0.133 c 8.975,0 16.189,-7.277 19.457,-16.252 0,0 5.916,-16.256 11.828,-32.5 5.918,-16.259 11.83,-32.503 11.83,-32.503 3.266,-8.975 1.502,-16.25 -7.473,-16.25 h -2.732 c -4.482,0 -9.041,3.639 -13.523,8.125 l -52.65,52.774 -28.479,28.479 c -4.487,4.488 -8.987,8.133 -13.475,8.133 h -1.413 c -0.558,0 -0.846,-0.443 -0.643,-0.992 l 18.992,-52.524 -45.442,45.384 c -4.487,4.488 -9.055,8.127 -13.542,8.127 h -2.923 c -4.487,0 -6.801,-3.639 -5.168,-8.127 l 14.721,-40.623 11.83,-32.505 c 3.267,-8.975 10.481,-16.25 19.456,-16.25 h 20.855 c 7.553,0 12.026,5.152 11.308,12.135"
       id="path4"
       style="stroke-width:8;stroke-linecap:round;stroke-miterlimit:10;stroke-dasharray:none" /><path
       d="m 400.772,150.148 c 25.619,-70.39 35.111,-96.472 35.111,-96.472 0,0 0.293,-1.021 -0.432,-1.021 -0.834,0 -1.463,0.834 -1.463,0.834 l -47.916,47.917 -8.453,8.457 -24.043,24.043 c -8.975,8.975 -6.266,16.25 2.709,16.25 h 0.131 c 8.975,0 16.189,-7.275 19.457,-16.25 0,0 5.916,-16.258 11.828,-32.5 5.918,-16.259 11.83,-32.503 11.83,-32.503 3.268,-8.975 1.348,-16.25 -7.627,-16.25 h -2.721 c -4.482,0 -8.898,3.637 -13.381,8.125 0,0 -20.301,20.322 -40.582,40.628 -3.768,3.771 -10.895,10.912 -12.561,12.58"
       id="path6"
       style="stroke-width:8;stroke-linecap:round;stroke-miterlimit:10;stroke-dasharray:none" /><path
       d="m 486.95,64.877 c 0.756,-7.018 -3.723,-12.205 -11.301,-12.205 h -0.762 c -4.482,0 -9.043,3.639 -13.525,8.125 0,0 -20.301,20.324 -40.582,40.628 -0.668,0.67 -2.631,2.611 -3.596,3.562 m -217.383,94.184 c 0,0 45.834,-125.932 53.23,-146.255"
       id="path8"
       style="stroke-width:8;stroke-linecap:round;stroke-miterlimit:10;stroke-dasharray:none" /></g></svg>
